<svg width="22" height="28" viewBox="0 0 22 28" fill="none" xmlns="http://www.w3.org/2000/svg">
<path d="M10.5946 14.9052C10.6206 14.9052 10.6466 14.9052 10.6778 14.9052C10.6882 14.9052 10.6986 14.9052 10.709 14.9052C10.7246 14.9052 10.7455 14.9052 10.7611 14.9052C12.2854 14.8766 13.5184 14.2866 14.4288 13.1581C16.4318 10.672 16.0988 6.41005 16.0624 6.00333C15.9323 2.95011 14.6213 1.48938 13.5392 0.8077C12.7328 0.297875 11.7912 0.0229135 10.7402 0H10.7038C10.6986 0 10.6882 0 10.683 0H10.6518C10.0743 0 8.94018 0.103111 7.85286 0.784787C6.76034 1.46646 5.4285 2.9272 5.29844 6.00333C5.26202 6.41005 4.92906 10.672 6.93202 13.1581C7.83726 14.2866 9.07025 14.8766 10.5946 14.9052ZM6.6875 6.14654C6.6875 6.12936 6.6927 6.11217 6.6927 6.10072C6.86439 1.99347 9.51246 1.55239 10.6466 1.55239H10.6674C10.6778 1.55239 10.6934 1.55239 10.709 1.55239C12.1137 1.58676 14.5017 2.21688 14.6629 6.10072C14.6629 6.1179 14.6629 6.13509 14.6681 6.14654C14.6733 6.18664 15.0375 10.0819 13.3831 12.1327C12.7276 12.9461 11.8536 13.3471 10.7038 13.3586C10.6934 13.3586 10.6882 13.3586 10.6778 13.3586C10.6674 13.3586 10.6622 13.3586 10.6518 13.3586C9.50726 13.3471 8.62803 12.9461 7.97772 12.1327C6.32853 10.0934 6.6823 6.18091 6.6875 6.14654Z" fill="white"/>
<path d="M21.3682 21.9739C21.3682 21.9682 21.3682 21.9624 21.3682 21.9567C21.3682 21.9109 21.363 21.8651 21.363 21.8135C21.3318 20.6793 21.2641 18.0271 19.0062 17.1793C18.9906 17.1735 18.9698 17.1678 18.9542 17.1621C16.6079 16.5033 14.6569 15.0139 14.6361 14.9968C14.3188 14.7504 13.8817 14.8364 13.658 15.1858C13.4343 15.5352 13.5124 16.0164 13.8297 16.2627C13.9182 16.3315 15.9888 17.9182 18.5796 18.6515C19.7918 19.1269 19.9271 20.5533 19.9635 21.8593C19.9635 21.9109 19.9635 21.9567 19.9687 22.0025C19.9739 22.5181 19.9427 23.3143 19.8594 23.7726C19.0166 24.2996 15.713 26.1212 10.6874 26.1212C5.68257 26.1212 2.35816 24.2939 1.51015 23.7669C1.42691 23.3086 1.39049 22.5124 1.40089 21.9968C1.40089 21.951 1.4061 21.9052 1.4061 21.8536C1.44251 20.5475 1.57778 19.1212 2.78997 18.6457C5.38082 17.9125 7.45143 16.32 7.53987 16.257C7.85722 16.0107 7.93526 15.5295 7.71155 15.1801C7.48784 14.8306 7.05083 14.7447 6.73348 14.991C6.71267 15.0082 4.77213 16.4976 2.41539 17.1563C2.39458 17.1621 2.37897 17.1678 2.36336 17.1735C0.105466 18.0271 0.0378337 20.6793 0.00661858 21.8078C0.00661858 21.8593 0.00661846 21.9052 0.00141594 21.951C0.00141594 21.9567 0.00141594 21.9625 0.00141594 21.9682C-0.00378658 22.2661 -0.00898899 23.7955 0.266745 24.5631C0.31877 24.7121 0.412415 24.8381 0.537276 24.924C0.693352 25.0386 4.43396 27.6622 10.6926 27.6622C16.9512 27.6622 20.6918 25.0329 20.8479 24.924C20.9676 24.8381 21.0664 24.7121 21.1185 24.5631C21.3786 23.8013 21.3734 22.2718 21.3682 21.9739Z" fill="white"/>
</svg>
